<svg version="1.1" id="Layer_1" xmlns="http://www.w3.org/2000/svg" xmlns:xlink="http://www.w3.org/1999/xlink" x="0px" y="0px"
	 width="100%" viewBox="0 0 178 175" enable-background="new 0 0 178 175" xml:space="preserve">
<path fill="#A91E3B" opacity="1.000000" stroke="none" 
	d="
M1.000001,63.000000 
	C1.000000,49.312439 1.000000,35.624878 1.349149,21.600784 
	C6.563956,13.797881 11.701322,6.596422 19.878670,2.289588 
	C20.087566,2.179566 19.966944,1.443889 20.000000,1.000000 
	C38.687561,1.000000 57.375122,1.000000 76.475159,1.428753 
	C78.065605,2.246189 79.223030,2.880933 80.425072,2.981272 
	C85.839661,3.433252 91.271690,3.673222 96.688622,4.101174 
	C108.492447,5.033710 120.303902,5.899790 132.088577,7.037906 
	C150.406586,8.806979 167.980743,25.043798 170.959061,43.081261 
	C172.027847,49.554047 172.414719,56.145641 172.976349,62.694717 
	C174.355957,78.781845 175.623184,94.878746 177.063431,110.960258 
	C177.158585,112.022804 178.329468,112.988991 179.000000,114.000000 
	C179.000000,127.687561 179.000000,141.375122 178.648865,155.400116 
	C173.868271,163.447113 168.630920,170.426773 160.851654,175.129730 
	C160.759430,175.185486 160.944412,175.699753 161.000000,176.000000 
	C139.645767,176.000000 118.291542,176.000000 96.521729,175.571548 
	C95.593262,174.789368 95.101677,174.164398 94.564331,174.122192 
	C85.025703,173.372986 75.491104,172.469467 65.935905,172.062256 
	C55.703983,171.626266 45.544563,171.010635 35.935596,167.079742 
	C21.523283,161.183884 12.710732,150.222305 9.153443,135.392456 
	C7.484152,128.433395 7.588425,121.041527 6.972765,113.838638 
	C5.626022,98.082458 4.371097,82.318237 2.943970,66.569504 
	C2.831749,65.331116 1.672592,64.187607 1.000001,63.000000 
M158.017487,70.548203 
	C151.246964,43.921448 128.060989,20.496632 102.202263,18.559958 
	C75.223061,16.539368 47.992146,17.879248 20.871227,17.761030 
	C20.727600,17.760405 20.583282,17.918068 20.219728,18.129498 
	C20.153744,18.949556 20.008677,19.914328 20.008360,20.879148 
	C20.000740,44.033119 19.920595,67.187721 20.085917,90.340553 
	C20.120110,95.129112 20.630224,100.011864 21.681530,104.679916 
	C29.152569,137.853134 56.628078,159.852753 90.617584,159.986191 
	C112.272148,160.071213 133.927322,160.006531 155.582214,159.992783 
	C157.023972,159.991867 158.465652,159.853439 160.978027,159.723679 
	C159.371460,154.232513 158.588181,149.028778 156.389984,144.513962 
	C149.694778,130.762894 138.215347,124.252525 123.019974,124.178558 
	C110.698830,124.118568 98.337234,124.731094 86.067902,123.920418 
	C74.894867,123.182175 66.378326,117.144714 59.941059,106.585571 
	C93.814728,106.585571 126.690613,106.585571 160.926941,106.585571 
	C159.971283,94.420067 159.065979,82.895607 158.017487,70.548203 
z"/>
<path fill="#000000" opacity="1.000000" stroke="none" 
	d="
M179.000000,113.531342 
	C178.329468,112.988991 177.158585,112.022804 177.063431,110.960258 
	C175.623184,94.878746 174.355957,78.781845 172.976349,62.694717 
	C172.414719,56.145641 172.027847,49.554047 170.959061,43.081261 
	C167.980743,25.043798 150.406586,8.806979 132.088577,7.037906 
	C120.303902,5.899790 108.492447,5.033710 96.688622,4.101174 
	C91.271690,3.673222 85.839661,3.433252 80.425072,2.981272 
	C79.223030,2.880933 78.065605,2.246189 76.943817,1.428753 
	C110.930679,1.000000 144.861359,1.000000 179.000000,1.000000 
	C179.000000,38.353970 179.000000,75.708328 179.000000,113.531342 
z"/>
<path fill="#000000" opacity="1.000000" stroke="none" 
	d="
M1.000001,63.468658 
	C1.672592,64.187607 2.831749,65.331116 2.943970,66.569504 
	C4.371097,82.318237 5.626022,98.082458 6.972765,113.838638 
	C7.588425,121.041527 7.484152,128.433395 9.153443,135.392456 
	C12.710732,150.222305 21.523283,161.183884 35.935596,167.079742 
	C45.544563,171.010635 55.703983,171.626266 65.935905,172.062256 
	C75.491104,172.469467 85.025703,173.372986 94.564331,174.122192 
	C95.101677,174.164398 95.593262,174.789368 96.053070,175.571548 
	C64.400070,176.000000 32.800133,176.000000 1.000000,176.000000 
	C1.000000,138.646011 1.000000,101.291664 1.000001,63.468658 
z"/>
<path fill="#000000" opacity="1.000000" stroke="none" 
	d="
M19.530624,1.000000 
	C19.966944,1.443889 20.087566,2.179566 19.878670,2.289588 
	C11.701322,6.596422 6.563956,13.797881 1.349149,21.132126 
	C1.000000,14.409307 1.000000,7.818615 1.000000,1.000000 
	C7.018513,1.000000 13.039881,1.000000 19.530624,1.000000 
z"/>
<path fill="#000000" opacity="1.000000" stroke="none" 
	d="
M161.469711,176.000000 
	C160.944412,175.699753 160.759430,175.185486 160.851654,175.129730 
	C168.630920,170.426773 173.868271,163.447113 178.648865,155.868774 
	C179.000000,162.588547 179.000000,169.177094 179.000000,176.000000 
	C173.315277,176.000000 167.627350,176.000000 161.469711,176.000000 
z"/>
<path fill="#FEFDFD" opacity="1.000000" stroke="none" 
	d="
M158.089081,70.959679 
	C159.065979,82.895607 159.971283,94.420067 160.926941,106.585571 
	C126.690613,106.585571 93.814728,106.585571 59.941059,106.585571 
	C66.378326,117.144714 74.894867,123.182175 86.067902,123.920418 
	C98.337234,124.731094 110.698830,124.118568 123.019974,124.178558 
	C138.215347,124.252525 149.694778,130.762894 156.389984,144.513962 
	C158.588181,149.028778 159.371460,154.232513 160.978027,159.723679 
	C158.465652,159.853439 157.023972,159.991867 155.582214,159.992783 
	C133.927322,160.006531 112.272148,160.071213 90.617584,159.986191 
	C56.628078,159.852753 29.152569,137.853134 21.681530,104.679916 
	C20.630224,100.011864 20.120110,95.129112 20.085917,90.340553 
	C19.920595,67.187721 20.000740,44.033119 20.008360,20.879148 
	C20.008677,19.914328 20.153744,18.949556 20.219728,18.129498 
	C20.583282,17.918068 20.727600,17.760405 20.871227,17.761030 
	C47.992146,17.879248 75.223061,16.539368 102.202263,18.559958 
	C128.060989,20.496632 151.246964,43.921448 158.089081,70.959679 
M100.572044,54.637798 
	C85.548683,53.838799 70.525330,53.039803 55.244884,52.227131 
	C55.244884,59.159176 55.244884,64.880638 55.244884,70.493103 
	C76.942490,70.493103 98.389633,70.493103 120.519196,70.493103 
	C115.421623,62.799866 109.199402,57.842827 100.572044,54.637798 
z"/>
<path fill="#AA203C" opacity="1.000000" stroke="none" 
	d="
M100.949570,54.774467 
	C109.199402,57.842827 115.421623,62.799866 120.519196,70.493103 
	C98.389633,70.493103 76.942490,70.493103 55.244884,70.493103 
	C55.244884,64.880638 55.244884,59.159176 55.244884,52.227131 
	C70.525330,53.039803 85.548683,53.838799 100.949570,54.774467 
z"/>
</svg>