<?xml version="1.0" encoding="UTF-8"?>
<svg version="1.1" xmlns="http://www.w3.org/2000/svg" width="500" height="500">
<path d="M0 0 C1.11448013 -0.00315216 2.22896027 -0.00630432 3.37721252 -0.009552 C4.5803862 -0.00752777 5.78355988 -0.00550354 7.02319336 -0.00341797 C8.25718369 -0.00437469 9.49117401 -0.00533142 10.76255798 -0.00631714 C14.04153193 -0.00717257 17.3204586 -0.00314372 20.59942627 0.00244141 C22.61252345 0.00439403 24.62557709 0.00244655 26.63867188 -0.00097656 C30.49603312 -0.00713432 34.35332947 -0.00641095 38.21069336 -0.00341797 C39.41589127 -0.0054422 40.62108917 -0.00746643 41.86280823 -0.009552 C43.52980019 -0.00482376 43.52980019 -0.00482376 45.23046875 0 C46.2118129 0.00079559 47.19315704 0.00159119 48.20423889 0.00241089 C50.55053711 0.12939453 50.55053711 0.12939453 52.55053711 1.12939453 C54.81962025 1.35599663 57.09100373 1.55958409 59.36303711 1.75439453 C120.12903706 8.03611183 176.85617318 42.82662081 215.87475586 88.94970703 C218.55571485 92.25568931 221.06199176 95.67766363 223.55053711 99.12939453 C224.54110019 100.4642692 225.53200097 101.79889333 226.52319336 103.13330078 C250.9438108 136.43273653 264.5794453 174.05149972 270.14916992 214.70361328 C270.50698377 217.26060686 270.50698377 217.26060686 271.55053711 220.12939453 C271.66353251 221.92834711 271.71962961 223.73110631 271.7434082 225.53344727 C271.76750259 227.199412 271.76750259 227.199412 271.79208374 228.89903259 C271.83720875 234.08346457 271.87820279 239.26781138 271.90063477 244.45239258 C271.9137195 247.15127822 271.94392929 249.84829482 271.98266602 252.54711914 C272.625339 297.63761433 261.10818131 339.23580432 238.55053711 378.12939453 C238.15415039 378.81453125 237.75776367 379.49966797 237.34936523 380.20556641 C233.74966591 386.37189626 229.92895442 392.22629449 225.43725586 397.77783203 C223.63810527 400.02025161 221.92371997 402.3147107 220.20996094 404.62255859 C213.92015982 413.02236492 206.82796851 420.58391777 199.55053711 428.12939453 C198.30916992 429.43263672 198.30916992 429.43263672 197.04272461 430.76220703 C189.85973336 438.15116218 182.11384837 444.76676648 173.23803711 450.02783203 C171.31927374 451.19789441 171.31927374 451.19789441 169.17553711 453.50439453 C162.41292925 460.26700239 153.95263263 464.73194659 145.55053711 469.12939453 C143.96016487 469.98648753 142.37037178 470.84465563 140.78100586 471.70361328 C122.25515105 481.65472251 103.96530498 488.95953542 83.55053711 494.12939453 C82.4396875 494.42297852 81.32883789 494.7165625 80.18432617 495.01904297 C43.38169127 504.39320131 -0.67018797 504.55633845 -37.44946289 495.12939453 C-38.47861816 494.87770508 -39.50777344 494.62601562 -40.56811523 494.36669922 C-69.10447273 487.24716236 -96.46698219 475.2144345 -120.44946289 458.12939453 C-121.1984082 457.62537109 -121.94735352 457.12134766 -122.71899414 456.60205078 C-124.33618271 455.50159702 -125.90163634 454.32544232 -127.44946289 453.12939453 C-127.44946289 452.46939453 -127.44946289 451.80939453 -127.44946289 451.12939453 C-128.18680664 450.86384766 -128.92415039 450.59830078 -129.68383789 450.32470703 C-148.53560826 442.17690797 -166.5410737 419.26525093 -178.43774414 402.88330078 C-180.20793149 400.4600346 -182.05183061 398.14008279 -183.94946289 395.81689453 C-188.74918295 389.66001225 -192.56511424 382.88206502 -196.44946289 376.12939453 C-196.86663574 375.41009766 -197.28380859 374.69080078 -197.71362305 373.94970703 C-206.16681383 359.32103531 -213.15191401 344.65551191 -217.80053711 328.38720703 C-218.25638686 326.80116545 -218.72247409 325.21804781 -219.19604492 323.63720703 C-223.11389828 310.55667125 -225.69738694 297.71997832 -227.15576172 284.14038086 C-227.41851639 281.92921896 -227.41851639 281.92921896 -228.44946289 279.12939453 C-228.5666354 277.45952767 -228.62868982 275.78552896 -228.65820312 274.11181641 C-228.67721176 273.0825705 -228.6962204 272.05332458 -228.71580505 270.9928894 C-228.72974808 269.8726236 -228.7436911 268.75235779 -228.75805664 267.59814453 C-228.77340958 266.43155304 -228.78876251 265.26496155 -228.80458069 264.0630188 C-229.08489994 237.82587504 -228.85668878 212.66101558 -222.44946289 187.12939453 C-222.13912109 185.88625488 -221.8287793 184.64311523 -221.5090332 183.36230469 C-217.81626491 169.04859274 -213.17205719 155.30364059 -206.44946289 142.12939453 C-205.97347656 141.19498535 -205.49749023 140.26057617 -205.00708008 139.29785156 C-196.2986135 122.38886701 -186.65239311 106.73557869 -174.44946289 92.12939453 C-173.7237207 91.21931641 -172.99797852 90.30923828 -172.25024414 89.37158203 C-159.43400971 73.63799439 -144.96682155 58.96021222 -128.25170898 47.39794922 C-126.23905743 45.98129554 -124.27589498 44.50833771 -122.31274414 43.02392578 C-113.2586508 36.20198993 -103.59914456 31.04193577 -93.43969727 26.10693359 C-91.56172059 25.1845319 -89.69894844 24.23807215 -87.84008789 23.27783203 C-64.35626336 11.21713482 -37.3136578 2.85930735 -10.84008789 1.34033203 C-7.06249249 1.00701479 -3.87717449 0.00314075 0 0 Z " fill="#161616" transform="translate(228.449462890625,-0.12939453125)"/>
<path d="M0 0 C0.79330719 0.00021149 1.58661438 0.00042297 2.40396118 0.00064087 C14.84838585 0.03370648 26.41221858 0.99752036 38.4375 4.375 C39.8600842 4.73154065 41.28326449 5.08571137 42.70703125 5.4375 C58.10824465 9.42280076 73.54804465 16.00263689 86.4375 25.375 C87.46875 26.12394531 88.5 26.87289063 89.5625 27.64453125 C116.65643787 47.74596662 138.37142583 75.45013659 147.4375 108.375 C147.4375 109.365 147.4375 110.355 147.4375 111.375 C145.16978477 113.3527651 142.93079487 115.11697682 140.5 116.875 C139.77997803 117.40327393 139.05995605 117.93154785 138.31811523 118.47583008 C88.60576749 154.56422886 28.066944 171.62564571 -33.1809082 162.65136719 C-40.05754941 161.54948343 -46.83122464 160.16709279 -53.5625 158.375 C-55.26792969 157.96314453 -55.26792969 157.96314453 -57.0078125 157.54296875 C-86.25214603 150.24740784 -127.19671224 134.82645092 -146.5625 110.375 C-146.50800869 104.19335006 -143.34551285 97.7829645 -140.9375 92.1875 C-140.40745361 90.9497583 -140.40745361 90.9497583 -139.86669922 89.68701172 C-132.47322919 72.77219493 -122.18197496 58.76065737 -109.5625 45.375 C-108.9025 44.65054688 -108.2425 43.92609375 -107.5625 43.1796875 C-80.00793831 14.05952572 -39.38089391 -0.09714033 0 0 Z " fill="#A81C39" transform="translate(249.5625,312.625)"/>
<path d="M0 0 C17.08835603 14.772092 27.55213765 34.93489722 29.36157227 57.49487305 C30.35353444 82.27212595 23.74833479 103.98622418 7.01171875 122.81640625 C-6.44565276 137.37343459 -26.44731568 147.94001623 -46.37011719 148.79956055 C-73.25469922 149.4029613 -94.85397026 143.5498246 -114.73583984 124.91259766 C-129.5855778 110.38426086 -138.96616193 89.88088109 -139.24414062 69.11254883 C-139.2006108 43.23225638 -132.186148 22.9514514 -114.30859375 3.98046875 C-82.62276785 -26.57707848 -33.7557866 -27.21646641 0 0 Z " fill="#A81C39" transform="translate(304.86328125,126.30859375)"/>
<path d="M0 0 C52.6838301 3.7416898 102.92252051 43.02932655 136.79833984 81.01660156 C140.06015028 84.87232244 143.04787882 88.90526734 146 93 C146.99056308 94.33487467 147.98146386 95.6694988 148.97265625 97.00390625 C169.2729505 124.68495673 191.68822523 165.5876837 191 201 C188.63092474 198.63092474 188.53883467 197.53765333 187.95703125 194.29296875 C187.77430664 193.32456055 187.59158203 192.35615234 187.40332031 191.35839844 C187.20834961 190.31200195 187.01337891 189.26560547 186.8125 188.1875 C183.01364255 169.06753626 176.50291416 151.50686025 168 134 C167.47865479 132.918396 167.47865479 132.918396 166.94677734 131.81494141 C155.3425123 108.03914064 139.18462268 87.08566255 121 68 C120.20335937 67.15050781 119.40671875 66.30101563 118.5859375 65.42578125 C112.45462566 59.06479486 105.77764428 53.68480984 98.76269531 48.35253906 C97.07168488 47.05500474 95.40426115 45.73274982 93.7421875 44.3984375 C85.91215562 38.150036 77.74323326 32.88045063 69 28 C68.2265625 27.5654248 67.453125 27.13084961 66.65625 26.68310547 C45.40568884 14.85155292 23.50459097 7.08651458 0 1 C0 0.67 0 0.34 0 0 Z " fill="#EEEEEE" transform="translate(306,6)"/>
<path d="M0 0 C-1.11375 0.30292969 -2.2275 0.60585937 -3.375 0.91796875 C-8.25721979 2.25325829 -13.1296049 3.62228735 -18 5 C-18.68787598 5.19223145 -19.37575195 5.38446289 -20.08447266 5.58251953 C-43.9691843 12.32665083 -67.91352753 23.37307746 -88 38 C-88.99 38.71800781 -89.98 39.43601563 -91 40.17578125 C-109.48018476 53.82377484 -126.80277887 68.86323583 -141 87 C-141.79019531 87.98484375 -142.58039063 88.9696875 -143.39453125 89.984375 C-168.0413061 120.9736387 -185.02332676 158.03272752 -192 197 C-192.33 197 -192.66 197 -193 197 C-190.72013346 161.13644472 -172.543794 124.31166349 -151 96 C-150.319375 95.10410156 -149.63875 94.20820312 -148.9375 93.28515625 C-147.00298886 90.81631442 -145.01087464 88.40689775 -143 86 C-142.27425781 85.08992188 -141.54851562 84.17984375 -140.80078125 83.2421875 C-127.98454682 67.50859986 -113.51735866 52.83081769 -96.80224609 41.26855469 C-94.78959454 39.85190101 -92.82643209 38.37894318 -90.86328125 36.89453125 C-81.80918791 30.0725954 -72.14968167 24.91254124 -61.99023438 19.97753906 C-60.1122577 19.05513737 -58.24948555 18.10867762 -56.390625 17.1484375 C-43.49527645 10.52571324 -30.80498078 5.76109942 -16.8125 2.0625 C-15.61729736 1.74345703 -14.42209473 1.42441406 -13.19067383 1.09570312 C-12.06169678 0.80759766 -10.93271973 0.51949219 -9.76953125 0.22265625 C-8.75479736 -0.03765381 -7.74006348 -0.29796387 -6.69458008 -0.56616211 C-4.03914898 -0.99369686 -2.50897654 -0.88215839 0 0 Z " fill="#EAEAEA" transform="translate(197,6)"/>
<path d="M0 0 C0.33 0 0.66 0 1 0 C-1.70682176 32.96155104 -19.92942081 72.42411182 -42 97 C-42.99 97.495 -42.99 97.495 -44 98 C-42.65435319 95.18026898 -41.14356941 92.62212746 -39.3828125 90.04296875 C-20.46678354 61.93050495 -8.73379508 32.55978989 0 0 Z " fill="#E4E4E4" transform="translate(494,303)"/>
<path d="M0 0 C2.03229417 3.47290776 2.56149494 6.73400493 3.1875 10.6875 C7.53403778 35.35258367 15.95581621 59.61397339 27.91796875 81.62109375 C28.27503906 82.40613281 28.63210937 83.19117188 29 84 C28.67 84.66 28.34 85.32 28 86 C19.18034889 71.33876178 12.67839115 56.45129323 8 40 C7.74831055 39.12972168 7.49662109 38.25944336 7.23730469 37.36279297 C-0.20815127 11.51076541 -0.20815127 11.51076541 0 0 Z " fill="#E1E1E1" transform="translate(2,286)"/>
<path d="M0 0 C6.85074911 0.48655115 13.22050688 1.58228309 19.8125 3.5 C21.16275269 3.89203613 21.16275269 3.89203613 22.5402832 4.29199219 C39.39699411 9.38047913 54.8452837 17.13661892 70 26 C69.67 26.66 69.34 27.32 69 28 C68.48429443 27.71390869 67.96858887 27.42781738 67.43725586 27.13305664 C45.80090399 15.22747754 23.8838515 7.1847241 0 1 C0 0.67 0 0.34 0 0 Z " fill="#E5E5E5" transform="translate(306,6)"/>
<path d="M0 0 C1.24322462 3.72967385 0.59435956 4.61385024 -0.9140625 8.1640625 C-1.55782837 9.7111792 -1.55782837 9.7111792 -2.21459961 11.28955078 C-2.68003174 12.39024902 -3.14546387 13.49094727 -3.625 14.625 C-9.75874912 29.54942555 -14.15856957 44.12957152 -17 60 C-17.33 60 -17.66 60 -18 60 C-17.52119996 52.46821188 -16.38632129 45.41222915 -14.4375 38.125 C-14.17864014 37.1448291 -13.91978027 36.1646582 -13.65307617 35.15478516 C-10.42519741 23.35045807 -6.7950739 10.30831644 0 0 Z " fill="#EFEFEF" transform="translate(22,143)"/>
<path d="M0 0 C0.99 0.33 1.98 0.66 3 1 C2.59273682 1.37697021 2.18547363 1.75394043 1.76586914 2.14233398 C-13.72330647 16.47629245 -13.72330647 16.47629245 -28 32 C-28 27.84454407 -26.38595697 26.88724681 -23.5625 23.875 C-23.08965576 23.3687207 -22.61681152 22.86244141 -22.12963867 22.34082031 C-14.93942976 14.71501259 -7.45283177 7.36749901 0 0 Z " fill="#F3F3F3" transform="translate(86,58)"/>
<path d="M0 0 C0.33 0.66 0.66 1.32 1 2 C0.12304688 3.92016602 0.12304688 3.92016602 -1.28125 6.25390625 C-1.79429687 7.10919922 -2.30734375 7.96449219 -2.8359375 8.84570312 C-3.38507813 9.74224609 -3.93421875 10.63878906 -4.5 11.5625 C-5.01820313 12.43197266 -5.53640625 13.30144531 -6.0703125 14.19726562 C-15.48246992 29.74123496 -15.48246992 29.74123496 -20 32 C-18.57589509 29.01712906 -16.94871772 26.27881445 -15.13671875 23.515625 C-14.57919922 22.66226562 -14.02167969 21.80890625 -13.44726562 20.9296875 C-12.86654297 20.04539062 -12.28582031 19.16109375 -11.6875 18.25 C-7.72742572 12.2044959 -3.80730221 6.14311426 0 0 Z " fill="#EDEDED" transform="translate(470,369)"/>
<path d="M0 0 C5.65818219 1.88606073 7.53803105 9.07606209 10.08984375 14.1796875 C12.1395479 18.58135631 12.1395479 18.58135631 11 22 C9.35045833 18.89779023 7.7060119 15.79290789 6.0625 12.6875 C5.59392578 11.80642578 5.12535156 10.92535156 4.64257812 10.01757812 C3.9706543 8.74624023 3.9706543 8.74624023 3.28515625 7.44921875 C2.87144775 6.66893311 2.45773926 5.88864746 2.03149414 5.0847168 C1 3 1 3 0 0 Z " fill="#E7E7E7" transform="translate(464,120)"/>
<path d="M0 0 C0.66 0.33 1.32 0.66 2 1 C0.39766277 2.93903849 -1.20678478 4.87626204 -2.8125 6.8125 C-3.26431641 7.35970703 -3.71613281 7.90691406 -4.18164062 8.47070312 C-6.35702693 11.09069392 -8.52526283 13.65681032 -11 16 C-10.41135171 12.10586517 -8.53589895 9.87170398 -6.0625 6.875 C-5.35222656 6.00617188 -4.64195313 5.13734375 -3.91015625 4.2421875 C-2 2 -2 2 0 0 Z " fill="#E7E7E7" transform="translate(56,90)"/>
<path d="M0 0 C3.43595166 1.52708963 6.11912454 3.59927045 9 6 C8.67 6.66 8.34 7.32 8 8 C6.66102417 7.04956626 5.32894573 6.08940853 4 5.125 C3.2575 4.59132813 2.515 4.05765625 1.75 3.5078125 C1.1725 3.01023438 0.595 2.51265625 0 2 C0 1.34 0 0.68 0 0 Z " fill="#E9E9E9" transform="translate(404,52)"/>
<path d="M0 0 C-1.24313463 3.72940389 -2.76985216 4.84656811 -6 7 C-6.99 6.67 -7.98 6.34 -9 6 C-7.8803014 4.99406757 -6.7540588 3.9954151 -5.625 3 C-4.68527344 2.1646875 -4.68527344 2.1646875 -3.7265625 1.3125 C-2 0 -2 0 0 0 Z " fill="#E7E7E7" transform="translate(97,51)"/>
</svg>
